<svg width="101" height="14" viewBox="0 0 101 14" fill="none" xmlns="http://www.w3.org/2000/svg">
<path d="M93.3002 7.21806L97.3002 4.03658L101.2 0.954553V7.21806V13.4816L97.3002 10.3001L93.3002 7.21806Z" fill="white"/>
<path d="M70.0004 7.21806L74.0004 4.03658L77.9004 0.954553V7.21806V13.4816L74.0004 10.3001L70.0004 7.21806Z" fill="white"/>
<path d="M46.6996 7.21806L50.5996 4.03658L54.5996 0.954553V7.21806V13.4816L50.5996 10.3001L46.6996 7.21806Z" fill="white"/>
<path d="M23.3998 7.21806L27.2998 4.03658L31.2998 0.954553V7.21806V13.4816L27.2998 10.3001L23.3998 7.21806Z" fill="white"/>
<path d="M0 7.21806L4 4.03658L8 0.954553L8 7.21806V13.4816L4 10.3001L0 7.21806Z" fill="white"/>
</svg>
