<svg width="197" height="49" viewBox="0 0 197 49" fill="none" xmlns="http://www.w3.org/2000/svg">
<path d="M1.95703 48V18.9091H9.85476V30.2727H20.3093V18.9091H28.207V48H20.3093V36.6364H9.85476V48H1.95703ZM42.5252 48.3977C40.1957 48.3977 38.1881 47.9527 36.5025 47.0625C34.8263 46.1629 33.5337 44.875 32.6246 43.1989C31.725 41.5133 31.2752 39.4962 31.2752 37.1477C31.2752 34.8939 31.7298 32.9242 32.6388 31.2386C33.5479 29.553 34.8311 28.2415 36.4883 27.304C38.1455 26.3665 40.101 25.8977 42.3548 25.8977C44.0025 25.8977 45.494 26.1534 46.8292 26.6648C48.1644 27.1761 49.3055 27.9195 50.2525 28.8949C51.1995 29.8608 51.9286 31.035 52.44 32.4176C52.9513 33.8002 53.207 35.358 53.207 37.0909V38.9091H33.7184V34.5909H45.9911C45.9817 33.9659 45.8207 33.4167 45.5082 32.9432C45.2051 32.4602 44.7932 32.0862 44.2724 31.821C43.761 31.5464 43.1786 31.4091 42.5252 31.4091C41.8907 31.4091 41.3084 31.5464 40.7781 31.821C40.2478 32.0862 39.8216 32.4555 39.4996 32.929C39.1871 33.4025 39.0214 33.9564 39.0025 34.5909V39.25C39.0025 39.9508 39.1493 40.5758 39.4428 41.125C39.7364 41.6742 40.1578 42.1051 40.707 42.4176C41.2563 42.7301 41.9192 42.8864 42.6957 42.8864C43.2354 42.8864 43.7279 42.8106 44.1729 42.6591C44.6275 42.5076 45.0157 42.2898 45.3377 42.0057C45.6597 41.7121 45.8964 41.3617 46.0479 40.9545H53.207C52.9608 42.4697 52.3784 43.786 51.4599 44.9034C50.5413 46.0114 49.3245 46.8731 47.8093 47.4886C46.3036 48.0947 44.5423 48.3977 42.5252 48.3977ZM56.4066 48V26.1818H64.0202V30.3295H64.2475C64.6452 28.7955 65.275 27.6733 66.1367 26.9631C67.0079 26.2528 68.0259 25.8977 69.1907 25.8977C69.5316 25.8977 69.8678 25.9261 70.1992 25.983C70.5401 26.0303 70.8668 26.1013 71.1793 26.196V32.8864C70.7911 32.7538 70.3129 32.6544 69.7447 32.5881C69.1765 32.5218 68.6888 32.4886 68.2816 32.4886C67.5146 32.4886 66.8233 32.6638 66.2077 33.0142C65.6017 33.3551 65.1235 33.8381 64.7731 34.4631C64.4227 35.0786 64.2475 35.803 64.2475 36.6364V48H56.4066ZM73.7504 48V26.1818H81.1935V30.3295H81.4208C81.8754 28.9659 82.6519 27.8864 83.7504 27.0909C84.8488 26.2955 86.1557 25.8977 87.6708 25.8977C89.2049 25.8977 90.5259 26.3049 91.6339 27.1193C92.7418 27.9242 93.4094 28.9943 93.6367 30.3295H93.864C94.2333 28.9943 95.0193 27.9242 96.2219 27.1193C97.4246 26.3049 98.8356 25.8977 100.455 25.8977C102.548 25.8977 104.243 26.5701 105.54 27.9148C106.847 29.2595 107.5 31.0492 107.5 33.2841V48H99.6594V35.2727C99.6594 34.3163 99.418 33.5682 98.935 33.0284C98.4521 32.4792 97.8034 32.2045 96.989 32.2045C96.1841 32.2045 95.5449 32.4792 95.0714 33.0284C94.6074 33.5682 94.3754 34.3163 94.3754 35.2727V48H86.8754V35.2727C86.8754 34.3163 86.6339 33.5682 86.1509 33.0284C85.668 32.4792 85.0193 32.2045 84.2049 32.2045C83.6651 32.2045 83.2011 32.3277 82.8129 32.5739C82.4246 32.8201 82.1216 33.1752 81.9038 33.6392C81.6954 34.0937 81.5913 34.6383 81.5913 35.2727V48H73.7504ZM121.879 48.3977C119.511 48.3977 117.485 47.929 115.799 46.9915C114.114 46.0445 112.821 44.7282 111.922 43.0426C111.022 41.3475 110.572 39.3826 110.572 37.1477C110.572 34.9129 111.022 32.9527 111.922 31.267C112.821 29.572 114.114 28.2557 115.799 27.3182C117.485 26.3712 119.511 25.8977 121.879 25.8977C124.246 25.8977 126.273 26.3712 127.958 27.3182C129.644 28.2557 130.937 29.572 131.836 31.267C132.736 32.9527 133.186 34.9129 133.186 37.1477C133.186 39.3826 132.736 41.3475 131.836 43.0426C130.937 44.7282 129.644 46.0445 127.958 46.9915C126.273 47.929 124.246 48.3977 121.879 48.3977ZM121.936 42.6023C122.599 42.6023 123.172 42.3797 123.654 41.9347C124.137 41.4896 124.511 40.8551 124.777 40.0312C125.042 39.2074 125.174 38.2273 125.174 37.0909C125.174 35.9451 125.042 34.965 124.777 34.1506C124.511 33.3267 124.137 32.6922 123.654 32.2472C123.172 31.8021 122.599 31.5795 121.936 31.5795C121.235 31.5795 120.634 31.8021 120.132 32.2472C119.63 32.6922 119.246 33.3267 118.981 34.1506C118.716 34.965 118.583 35.9451 118.583 37.0909C118.583 38.2273 118.716 39.2074 118.981 40.0312C119.246 40.8551 119.63 41.4896 120.132 41.9347C120.634 42.3797 121.235 42.6023 121.936 42.6023ZM144.208 35.7273V48H136.368V26.1818H143.811V30.3295H144.038C144.511 28.947 145.345 27.8627 146.538 27.0767C147.741 26.2907 149.142 25.8977 150.743 25.8977C152.286 25.8977 153.626 26.2528 154.762 26.9631C155.908 27.6638 156.794 28.6297 157.419 29.8608C158.053 31.0919 158.366 32.4981 158.356 34.0795V48H150.515V35.7273C150.525 34.6477 150.25 33.8002 149.691 33.1847C149.142 32.5691 148.375 32.2614 147.39 32.2614C146.746 32.2614 146.183 32.4034 145.7 32.6875C145.226 32.9621 144.862 33.3598 144.606 33.8807C144.35 34.392 144.218 35.0076 144.208 35.7273ZM175.238 26.1818V31.8636H160.863V26.1818H175.238ZM163.647 20.9545H171.488V40.983C171.488 41.286 171.54 41.5417 171.645 41.75C171.749 41.9489 171.91 42.1004 172.127 42.2045C172.345 42.2992 172.625 42.3466 172.966 42.3466C173.202 42.3466 173.477 42.3182 173.789 42.2614C174.111 42.2045 174.348 42.1572 174.5 42.1193L175.636 47.6307C175.286 47.7348 174.784 47.8627 174.13 48.0142C173.486 48.1657 172.719 48.2652 171.829 48.3125C170.03 48.4072 168.52 48.2225 167.298 47.7585C166.076 47.285 165.158 46.5417 164.542 45.5284C163.927 44.5152 163.628 43.2462 163.647 41.7216V20.9545Z" fill="#8C4949"/>
<path d="M190.668 48.4545C189.569 48.4545 188.627 48.071 187.841 47.304C187.065 46.5275 186.681 45.5852 186.691 44.4773C186.681 43.3977 187.065 42.4744 187.841 41.7074C188.627 40.9403 189.569 40.5568 190.668 40.5568C191.71 40.5568 192.628 40.9403 193.424 41.7074C194.229 42.4744 194.636 43.3977 194.645 44.4773C194.636 45.2159 194.442 45.8883 194.063 46.4943C193.694 47.0909 193.211 47.5691 192.614 47.929C192.017 48.2794 191.369 48.4545 190.668 48.4545Z" fill="#F26666"/>
<path d="M0.0238672 9L3.08387 2H5.40387L8.46387 9H6.02387L3.76387 3.12H4.68387L2.42387 9H0.0238672ZM1.84387 7.78L2.44387 6.08H5.66387L6.26387 7.78H1.84387ZM11.7686 9V3.53H13.9186V5.18L13.5686 4.71C13.7352 4.28333 14.0019 3.96333 14.3686 3.75C14.7352 3.53667 15.1752 3.43 15.6886 3.43V5.43C15.5886 5.41667 15.4986 5.40667 15.4186 5.4C15.3452 5.39333 15.2686 5.39 15.1886 5.39C14.8486 5.39 14.5686 5.48 14.3486 5.66C14.1352 5.83333 14.0286 6.13667 14.0286 6.57V9H11.7686ZM22.6371 9V8.03L22.4771 7.77V5.93C22.4771 5.66333 22.3938 5.46 22.2271 5.32C22.0671 5.18 21.8038 5.11 21.4371 5.11C21.1905 5.11 20.9405 5.15 20.6871 5.23C20.4338 5.30333 20.2171 5.40667 20.0371 5.54L19.3171 4.05C19.6371 3.85 20.0205 3.69667 20.4671 3.59C20.9138 3.48333 21.3505 3.43 21.7771 3.43C22.7171 3.43 23.4438 3.64 23.9571 4.06C24.4771 4.48 24.7371 5.14667 24.7371 6.06V9H22.6371ZM21.0871 9.1C20.6405 9.1 20.2671 9.02333 19.9671 8.87C19.6671 8.71667 19.4405 8.51333 19.2871 8.26C19.1338 8 19.0571 7.71333 19.0571 7.4C19.0571 7.04667 19.1471 6.74667 19.3271 6.5C19.5071 6.25333 19.7805 6.06667 20.1471 5.94C20.5205 5.81333 20.9905 5.75 21.5571 5.75H22.6971V6.84H21.9171C21.6771 6.84 21.5005 6.88 21.3871 6.96C21.2805 7.03333 21.2271 7.14667 21.2271 7.3C21.2271 7.42667 21.2738 7.53333 21.3671 7.62C21.4671 7.7 21.6005 7.74 21.7671 7.74C21.9205 7.74 22.0605 7.7 22.1871 7.62C22.3205 7.53333 22.4171 7.4 22.4771 7.22L22.7671 7.89C22.6805 8.29667 22.4971 8.6 22.2171 8.8C21.9371 9 21.5605 9.1 21.0871 9.1ZM32.3619 9.1C31.8619 9.1 31.4586 9 31.1519 8.8C30.8452 8.6 30.6219 8.29 30.4819 7.87C30.3486 7.45 30.2819 6.91333 30.2819 6.26C30.2819 5.61333 30.3552 5.08333 30.5019 4.67C30.6486 4.25 30.8752 3.94 31.1819 3.74C31.4952 3.53333 31.8886 3.43 32.3619 3.43C32.8419 3.43 33.2819 3.54333 33.6819 3.77C34.0819 3.99667 34.4019 4.32333 34.6419 4.75C34.8819 5.17 35.0019 5.67333 35.0019 6.26C35.0019 6.84667 34.8819 7.35333 34.6419 7.78C34.4019 8.2 34.0819 8.52667 33.6819 8.76C33.2819 8.98667 32.8419 9.1 32.3619 9.1ZM28.7119 9V1.58H30.9719V4.26L30.8719 6.26L30.8619 8.26V9H28.7119ZM31.8219 7.34C31.9886 7.34 32.1386 7.3 32.2719 7.22C32.4052 7.14 32.5119 7.02 32.5919 6.86C32.6719 6.69333 32.7119 6.49333 32.7119 6.26C32.7119 6.02 32.6719 5.82333 32.5919 5.67C32.5119 5.51 32.4052 5.39 32.2719 5.31C32.1386 5.23 31.9886 5.19 31.8219 5.19C31.6552 5.19 31.5052 5.23 31.3719 5.31C31.2386 5.39 31.1319 5.51 31.0519 5.67C30.9719 5.82333 30.9319 6.02 30.9319 6.26C30.9319 6.49333 30.9719 6.69333 31.0519 6.86C31.1319 7.02 31.2386 7.14 31.3719 7.22C31.5052 7.3 31.6552 7.34 31.8219 7.34ZM38.7119 9V3.53H40.9719V9H38.7119ZM39.8419 3.09C39.4286 3.09 39.0986 2.98 38.8519 2.76C38.6052 2.54 38.4819 2.26667 38.4819 1.94C38.4819 1.61333 38.6052 1.34 38.8519 1.12C39.0986 0.9 39.4286 0.79 39.8419 0.79C40.2552 0.79 40.5852 0.893333 40.8319 1.1C41.0786 1.30667 41.2019 1.57333 41.2019 1.9C41.2019 2.24667 41.0786 2.53333 40.8319 2.76C40.5852 2.98 40.2552 3.09 39.8419 3.09ZM47.9917 9.1C47.325 9.1 46.7417 8.97667 46.2417 8.73C45.7483 8.48333 45.365 8.14667 45.0917 7.72C44.8183 7.28667 44.6817 6.8 44.6817 6.26C44.6817 5.70667 44.815 5.21667 45.0817 4.79C45.355 4.36333 45.725 4.03 46.1917 3.79C46.665 3.55 47.195 3.43 47.7817 3.43C48.3217 3.43 48.8183 3.53667 49.2717 3.75C49.7317 3.96333 50.0983 4.28 50.3717 4.7C50.6517 5.12 50.7917 5.64 50.7917 6.26C50.7917 6.34 50.7883 6.43 50.7817 6.53C50.775 6.62333 50.7683 6.71 50.7617 6.79H46.5517V5.7H49.5617L48.7117 5.99C48.7117 5.77667 48.6717 5.59667 48.5917 5.45C48.5183 5.29667 48.415 5.18 48.2817 5.1C48.1483 5.01333 47.9883 4.97 47.8017 4.97C47.615 4.97 47.4517 5.01333 47.3117 5.1C47.1783 5.18 47.075 5.29667 47.0017 5.45C46.9283 5.59667 46.8917 5.77667 46.8917 5.99V6.33C46.8917 6.56333 46.9383 6.76333 47.0317 6.93C47.125 7.09667 47.2583 7.22333 47.4317 7.31C47.605 7.39 47.815 7.43 48.0617 7.43C48.315 7.43 48.5217 7.39667 48.6817 7.33C48.8483 7.26333 49.0217 7.16333 49.2017 7.03L50.3817 8.22C50.115 8.50667 49.785 8.72667 49.3917 8.88C49.005 9.02667 48.5383 9.1 47.9917 9.1ZM57.571 9V2H61.311C62.2776 2 62.991 2.17333 63.451 2.52C63.911 2.86 64.141 3.29667 64.141 3.83C64.141 4.18333 64.041 4.5 63.841 4.78C63.6476 5.05333 63.3643 5.27 62.991 5.43C62.6176 5.59 62.1576 5.67 61.611 5.67L61.811 5.13C62.3576 5.13 62.8276 5.20667 63.221 5.36C63.621 5.51333 63.9276 5.73667 64.141 6.03C64.361 6.31667 64.471 6.66333 64.471 7.07C64.471 7.67667 64.2176 8.15 63.711 8.49C63.211 8.83 62.4776 9 61.511 9H57.571ZM59.891 7.35H61.311C61.571 7.35 61.7643 7.30333 61.891 7.21C62.0243 7.11667 62.091 6.98 62.091 6.8C62.091 6.62 62.0243 6.48333 61.891 6.39C61.7643 6.29667 61.571 6.25 61.311 6.25H59.731V4.69H60.991C61.2576 4.69 61.451 4.64667 61.571 4.56C61.6976 4.46667 61.761 4.33667 61.761 4.17C61.761 3.99667 61.6976 3.86667 61.571 3.78C61.451 3.69333 61.2576 3.65 60.991 3.65H59.891V7.35ZM71.2534 9.1C70.5867 9.1 70.0034 8.97667 69.5034 8.73C69.0101 8.48333 68.6267 8.14667 68.3534 7.72C68.0801 7.28667 67.9434 6.8 67.9434 6.26C67.9434 5.70667 68.0767 5.21667 68.3434 4.79C68.6167 4.36333 68.9867 4.03 69.4534 3.79C69.9267 3.55 70.4567 3.43 71.0434 3.43C71.5834 3.43 72.0801 3.53667 72.5334 3.75C72.9934 3.96333 73.3601 4.28 73.6334 4.7C73.9134 5.12 74.0534 5.64 74.0534 6.26C74.0534 6.34 74.0501 6.43 74.0434 6.53C74.0367 6.62333 74.0301 6.71 74.0234 6.79H69.8134V5.7H72.8234L71.9734 5.99C71.9734 5.77667 71.9334 5.59667 71.8534 5.45C71.7801 5.29667 71.6767 5.18 71.5434 5.1C71.4101 5.01333 71.2501 4.97 71.0634 4.97C70.8767 4.97 70.7134 5.01333 70.5734 5.1C70.4401 5.18 70.3367 5.29667 70.2634 5.45C70.1901 5.59667 70.1534 5.77667 70.1534 5.99V6.33C70.1534 6.56333 70.2001 6.76333 70.2934 6.93C70.3867 7.09667 70.5201 7.22333 70.6934 7.31C70.8667 7.39 71.0767 7.43 71.3234 7.43C71.5767 7.43 71.7834 7.39667 71.9434 7.33C72.1101 7.26333 72.2834 7.16333 72.4634 7.03L73.6434 8.22C73.3767 8.50667 73.0467 8.72667 72.6534 8.88C72.2667 9.02667 71.8001 9.1 71.2534 9.1ZM77.5646 9V7.7L80.4746 4.46L80.8446 5.18H77.6446V3.53H82.6746V4.83L79.7646 8.07L79.3946 7.35H82.7846V9H77.5646ZM86.4658 9V3.53H88.6158V5.18L88.2658 4.71C88.4325 4.28333 88.6992 3.96333 89.0658 3.75C89.4325 3.53667 89.8725 3.43 90.3858 3.43V5.43C90.2858 5.41667 90.1958 5.40667 90.1158 5.4C90.0425 5.39333 89.9658 5.39 89.8858 5.39C89.5458 5.39 89.2658 5.48 89.0458 5.66C88.8325 5.83333 88.7258 6.13667 88.7258 6.57V9H86.4658ZM94.0244 9V3.53H96.2844V9H94.0244ZM95.1544 3.09C94.7411 3.09 94.4111 2.98 94.1644 2.76C93.9177 2.54 93.7944 2.26667 93.7944 1.94C93.7944 1.61333 93.9177 1.34 94.1644 1.12C94.4111 0.9 94.7411 0.79 95.1544 0.79C95.5677 0.79 95.8977 0.893333 96.1444 1.1C96.3911 1.30667 96.5144 1.57333 96.5144 1.9C96.5144 2.24667 96.3911 2.53333 96.1444 2.76C95.8977 2.98 95.5677 3.09 95.1544 3.09Z" fill="#8C4949"/>
<line x1="109" y1="5" x2="177" y2="5" stroke="#F26666"/>
</svg>
